# xmcd
#
# Track frame offsets:
#	150
#	16959
#	32466
#	47108
#	64765
#	79522
#	88881
#	102551
#	115016
#	129290
#	143630
#	160361
#
# Disc length: 2266 seconds
#
# Revision: 0
# Processed by: cddbd v1.5.2PL0 Copyright (c) Steve Scherf et al.
# Submitted via: EasyCDDAExtractor 16.0.1.1
#
DISCID=9408d80c
DTITLE=Linda Ronstadt - Heart Like a Wheel
DYEAR=1974
DGENRE=
TTITLE0=You're No Good
TTITLE1=It Doesn't Matter Anymore
TTITLE2=Faithless Love
TTITLE3=The Dark End of the Street
TTITLE4=Heart Like a Wheel
TTITLE5=When Will I Be Loved?
TTITLE6=Willin'
TTITLE7=I Can't Help It (If I'm Still in Love With You)
TTITLE8=Keep Me From Blowing Away
TTITLE9=You Can Close Your Eyes
TTITLE10=You're No Good
TTITLE11=When Will I Be Loved
EXTD=
EXTT0=
EXTT1=
EXTT2=
EXTT3=
EXTT4=
EXTT5=
EXTT6=
EXTT7=
EXTT8=
EXTT9=
EXTT10=
EXTT11=
PLAYORDER=
